<svg width="202" height="36" viewBox="0 0 202 36" fill="none" xmlns="http://www.w3.org/2000/svg">
<path d="M18.2932 8.72C17.8372 7.88 17.1772 7.244 16.3132 6.812C15.4732 6.356 14.4772 6.128 13.3252 6.128C11.3332 6.128 9.73716 6.788 8.53716 8.108C7.33716 9.404 6.73716 11.144 6.73716 13.328C6.73716 15.656 7.36116 17.48 8.60916 18.8C9.88116 20.096 11.6212 20.744 13.8292 20.744C15.3412 20.744 16.6132 20.36 17.6452 19.592C18.7012 18.824 19.4692 17.72 19.9492 16.28H12.1372V11.744H25.5292V17.468C25.0732 19.004 24.2932 20.432 23.1892 21.752C22.1092 23.072 20.7292 24.14 19.0492 24.956C17.3692 25.772 15.4732 26.18 13.3612 26.18C10.8652 26.18 8.63316 25.64 6.66516 24.56C4.72116 23.456 3.19716 21.932 2.09316 19.988C1.01316 18.044 0.473156 15.824 0.473156 13.328C0.473156 10.832 1.01316 8.612 2.09316 6.668C3.19716 4.7 4.72116 3.176 6.66516 2.096C8.60916 0.991999 10.8292 0.439999 13.3252 0.439999C16.3492 0.439999 18.8932 1.172 20.9572 2.636C23.0452 4.1 24.4252 6.128 25.0972 8.72H18.2932ZM49.459 5.912L36.859 35.54H30.235L34.843 25.316L26.671 5.912H33.547L38.191 18.476L42.799 5.912H49.459ZM77.3171 5.696C79.8131 5.696 81.7931 6.452 83.2571 7.964C84.7451 9.476 85.4891 11.576 85.4891 14.264V26H79.3691V15.092C79.3691 13.796 79.0211 12.8 78.3251 12.104C77.6531 11.384 76.7171 11.024 75.5171 11.024C74.3171 11.024 73.3691 11.384 72.6731 12.104C72.0011 12.8 71.6651 13.796 71.6651 15.092V26H65.5451V15.092C65.5451 13.796 65.1971 12.8 64.5011 12.104C63.8291 11.384 62.8931 11.024 61.6931 11.024C60.4931 11.024 59.5451 11.384 58.8491 12.104C58.1771 12.8 57.8411 13.796 57.8411 15.092V26H51.6851V5.912H57.8411V8.432C58.4651 7.592 59.2811 6.932 60.2891 6.452C61.2971 5.948 62.4371 5.696 63.7091 5.696C65.2211 5.696 66.5651 6.02 67.7411 6.668C68.9411 7.316 69.8771 8.24 70.5491 9.44C71.2451 8.336 72.1931 7.436 73.3931 6.74C74.5931 6.044 75.9011 5.696 77.3171 5.696Z" fill="#24DBFD"/>
<path d="M109.055 8.864C109.055 10.328 108.719 11.672 108.047 12.896C107.375 14.096 106.343 15.068 104.951 15.812C103.559 16.556 101.831 16.928 99.7665 16.928H95.9505V26H89.7945V0.727999H99.7665C101.783 0.727999 103.487 1.076 104.879 1.772C106.271 2.468 107.315 3.428 108.011 4.652C108.707 5.876 109.055 7.28 109.055 8.864ZM99.2985 12.032C100.475 12.032 101.351 11.756 101.927 11.204C102.503 10.652 102.791 9.872 102.791 8.864C102.791 7.856 102.503 7.076 101.927 6.524C101.351 5.972 100.475 5.696 99.2985 5.696H95.9505V12.032H99.2985ZM121.403 26.288C119.435 26.288 117.659 25.868 116.075 25.028C114.515 24.188 113.279 22.988 112.367 21.428C111.479 19.868 111.035 18.044 111.035 15.956C111.035 13.892 111.491 12.08 112.403 10.52C113.315 8.936 114.563 7.724 116.147 6.884C117.731 6.044 119.507 5.624 121.475 5.624C123.443 5.624 125.219 6.044 126.803 6.884C128.387 7.724 129.635 8.936 130.547 10.52C131.459 12.08 131.915 13.892 131.915 15.956C131.915 18.02 131.447 19.844 130.511 21.428C129.599 22.988 128.339 24.188 126.731 25.028C125.147 25.868 123.371 26.288 121.403 26.288ZM121.403 20.96C122.579 20.96 123.575 20.528 124.391 19.664C125.231 18.8 125.651 17.564 125.651 15.956C125.651 14.348 125.243 13.112 124.427 12.248C123.635 11.384 122.651 10.952 121.475 10.952C120.275 10.952 119.279 11.384 118.487 12.248C117.695 13.088 117.299 14.324 117.299 15.956C117.299 17.564 117.683 18.8 118.451 19.664C119.243 20.528 120.227 20.96 121.403 20.96ZM164.017 5.912L158.581 26H151.777L148.609 12.968L145.333 26H138.565L133.093 5.912H139.249L142.093 20.276L145.477 5.912H151.993L155.413 20.204L158.221 5.912H164.017ZM185.301 15.632C185.301 16.208 185.265 16.808 185.193 17.432H171.261C171.357 18.68 171.753 19.64 172.449 20.312C173.169 20.96 174.045 21.284 175.077 21.284C176.613 21.284 177.681 20.636 178.281 19.34H184.833C184.497 20.66 183.885 21.848 182.997 22.904C182.133 23.96 181.041 24.788 179.721 25.388C178.401 25.988 176.925 26.288 175.293 26.288C173.325 26.288 171.573 25.868 170.037 25.028C168.501 24.188 167.301 22.988 166.437 21.428C165.573 19.868 165.141 18.044 165.141 15.956C165.141 13.868 165.561 12.044 166.401 10.484C167.265 8.924 168.465 7.724 170.001 6.884C171.537 6.044 173.301 5.624 175.293 5.624C177.237 5.624 178.965 6.032 180.477 6.848C181.989 7.664 183.165 8.828 184.005 10.34C184.869 11.852 185.301 13.616 185.301 15.632ZM179.001 14.012C179.001 12.956 178.641 12.116 177.921 11.492C177.201 10.868 176.301 10.556 175.221 10.556C174.189 10.556 173.313 10.856 172.593 11.456C171.897 12.056 171.465 12.908 171.297 14.012H179.001ZM194.704 9.26C195.424 8.156 196.324 7.292 197.404 6.668C198.484 6.02 199.684 5.696 201.004 5.696V12.212H199.312C197.776 12.212 196.624 12.548 195.856 13.22C195.088 13.868 194.704 15.02 194.704 16.676V26H188.548V5.912H194.704V9.26Z" fill="white"/>
</svg>
